<svg width="47" height="47" viewBox="0 0 47 47" fill="none" xmlns="http://www.w3.org/2000/svg">
<path d="M23.5 0C36.479 0 47 10.521 47 23.5C47 36.479 36.479 47 23.5 47C10.521 47 0 36.479 0 23.5C0 10.521 10.521 0 23.5 0ZM27.4245 32.9H19.5755L16.3325 37.3579L17.6344 41.3671C19.5277 41.9871 21.5077 42.3021 23.5 42.3C25.5468 42.3 27.5185 41.971 29.3656 41.3671L30.6651 37.3579L27.4221 32.9H27.4245ZM7.7409 20.8492L4.7047 23.0511L4.7 23.5C4.7 27.5655 5.99015 31.3278 8.1827 34.404H12.6712L15.7802 30.127L13.3644 22.6775L7.7409 20.8492ZM39.2591 20.8492L33.6355 22.6775L31.2197 30.127L34.3265 34.404H38.8149C41.087 31.2225 42.3057 27.4094 42.3 23.5L42.2929 23.0535L39.2591 20.8492ZM23.5 17.7096L17.9916 21.7093L20.0972 28.2H26.9004L29.0061 21.7093L23.5 17.7096ZM28.8839 5.48255L25.85 7.69155V13.6065L32.1809 18.2054L37.4426 16.497L38.7444 12.4949C36.3184 9.13649 32.8526 6.67176 28.8839 5.48255ZM18.1138 5.48255C14.1456 6.67284 10.6806 9.13839 8.25555 12.4973L9.55745 16.497L14.8191 18.2054L21.15 13.6065V7.69155L18.1138 5.48255Z" fill="black"/>
</svg>
